<svg width="32" height="32" viewBox="0 0 32 32" xmlns="http://www.w3.org/2000/svg">
  <defs>
    <linearGradient id="gradient" x1="0%" y1="0%" x2="100%" y2="100%">
      <stop offset="0%" style="stop-color:#667eea;stop-opacity:1" />
      <stop offset="100%" style="stop-color:#764ba2;stop-opacity:1" />
    </linearGradient>
  </defs>
  
  <!-- Background circle -->
  <circle cx="16" cy="16" r="15" fill="url(#gradient)" stroke="#ffffff" stroke-width="1"/>
  
  <!-- L letter -->
  <path d="M8 8 L8 20 L12 20 L12 16 L11 16 L11 12 L8 12 Z" fill="white" font-weight="bold"/>
  
  <!-- & symbol -->
  <path d="M14 12 C14 11 14.5 10.5 15.5 10.5 C16.5 10.5 17 11 17 12 C17 12.5 16.7 13 16 13.5 L15 14.5 L16.5 16 L18 16 L16 14 C17 13.2 17.5 12.3 17.5 11.5 C17.5 10.2 16.7 9.5 15.5 9.5 C14.3 9.5 13.5 10.2 13.5 11.5 C13.5 12.2 13.8 12.8 14.3 13.3 L13 14.7 C12.7 14.3 12.5 13.8 12.5 13.2 C12.5 12.5 12.8 11.9 13.3 11.4 L14 12 Z M14.5 15.5 L15.5 14.5 L17 16 L16 17 L14.5 15.5 Z" fill="white" font-size="8"/>
  
  <!-- B letter -->
  <path d="M20 8 L20 20 L24 20 C25 20 26 19 26 18 C26 17.3 25.5 16.7 24.8 16.5 C25.3 16.2 25.5 15.7 25.5 15 C25.5 14 24.5 13 23.5 13 L20 13 Z M21.5 14.5 L23 14.5 C23.3 14.5 23.5 14.7 23.5 15 C23.5 15.3 23.3 15.5 23 15.5 L21.5 15.5 Z M21.5 17 L23.5 17 C23.8 17 24 17.2 24 17.5 C24 17.8 23.8 18 23.5 18 L21.5 18 Z" fill="white"/>
</svg>